<svg width="32" height="32" viewBox="0 0 32 32" fill="none" xmlns="http://www.w3.org/2000/svg">
<g clip-path="url(#clip0_8_65)">
<path d="M16.8594 31.7074C15.959 31.7071 15.06 31.6337 14.1714 31.488C9.82506 30.7748 5.93948 28.3656 3.36808 24.7896C0.796677 21.2137 -0.250286 16.7633 0.457135 12.416C0.852994 9.94114 1.80705 7.58886 3.24699 5.53746C4.68693 3.48606 6.57496 1.78938 8.76799 0.576C9.13798 0.369271 9.55956 0.273158 9.98259 0.299091C10.4056 0.325024 10.8123 0.471912 11.1543 0.722286C11.5038 0.961448 11.7763 1.29704 11.9386 1.68822C12.101 2.07941 12.1461 2.50934 12.0686 2.92571L10.88 2.83429L12.0046 3.03543C11.3701 6.4009 11.963 9.88231 13.6757 12.8481C15.3884 15.8138 18.1074 18.0674 21.3394 19.2C23.8284 20.0638 26.5061 20.2314 29.0834 19.6846C29.4912 19.6045 29.9133 19.64 30.302 19.787C30.6908 19.934 31.0307 20.1866 31.2836 20.5165C31.5364 20.8463 31.6921 21.2402 31.733 21.6538C31.774 22.0673 31.6986 22.4841 31.5154 22.8571C30.1053 25.5232 27.9964 27.7554 25.4146 29.3144C22.8328 30.8735 19.8754 31.7007 16.8594 31.7074ZM9.75542 2.64229C8.00666 3.63387 6.48615 4.98238 5.29275 6.60016C4.09935 8.21794 3.25978 10.0688 2.82861 12.0323C2.39744 13.9958 2.38433 16.0281 2.79013 17.9971C3.19593 19.966 4.01156 21.8275 5.18399 23.4606C6.59711 25.4359 8.48949 27.0193 10.6831 28.0618C12.8768 29.1043 15.2995 29.5716 17.7235 29.4198C20.1475 29.268 22.4931 28.5021 24.5395 27.1941C26.586 25.8861 28.266 24.079 29.4217 21.9429C26.4809 22.534 23.4358 22.3321 20.5988 21.3577C16.8556 20.0452 13.7051 17.4373 11.7165 14.005C9.7279 10.5728 9.03233 6.54253 9.75542 2.64229Z" fill="#ECD1BC"/>
</g>
<defs>
<clipPath id="clip0_8_65">
<rect width="32" height="32" fill="white"/>
</clipPath>
</defs>
</svg>
